<?xml version="1.0" encoding="UTF-8"?>
<svg id="Layer_2" data-name="Layer 2" xmlns="http://www.w3.org/2000/svg" viewBox="0 0 99.21 99.21">
  <defs>
    <style>
      .cls-1, .cls-2 {
        fill: #005826;
      }

      .cls-2 {
        fill-rule: evenodd;
      }
    </style>
  </defs>
  <g id="Layer_1-2" data-name="Layer 1">
    <g>
      <path class="cls-2" d="m73.06,28.96v-2.17c-1.01-.52-1.79-.9-2.29-1.01-.23-.06-.9-.15-1.13-.15-.55-.09-.61.15-.55.44.14.64.84.9,1.04.87.64-.12.84.14,1.3.32.29.09,1.01.26.81.46-.23.23-.26.03-.49.17-.2.14-.95-.29-1.22-.06-.14.15.03.58-.26.64-.17.03-.43-.23-.66-.38-.66-.38-1.36-1.04-2.02-1.33-.72-.29-.78.06-.7.52.03.26,0,.38.23.87.26.52,1.71.78,2.23,1.3.32.29.61.38.46.52-.26.43-.49.78-.95.95-.43.2-2.17-1.62-2.2-1.1.06.4.38.9.43,1.33.12.64.12,1.16.14,1.33.12.41.9.58,1.79.29.38-.14.84-.38,1.24-.61.55-.32,1.13-1.59,1.45-1.42.75.41.78.55,1.33,1.21h0v-1.97c-.58-.32-1.07-.61-.9-.81.12-.14.46-.23.9-.23Zm-3.44-5.29c.23,0,1.62-1.85,1.97-2.49.09-.38.38-.78.55-.95.29-.23.49-.17.61.03.14.26.12.75-.03,1.45-.09.46-.23.26-.32.41-.49.61-1.04,1.19-1.36,1.62-.2.23.12.52.29.43.58-.69,1.22-1.62,1.74-2.29v1.94l-.03.03c-.35.38-.55.2-.72.64.03.12.43.2.75.2v1.53c-.17-.12-.38-.2-.52-.29-.12-.06-.32-.17-.55-.2-.17-.03-.41.09-.58,0-.26-.14-.46-.29-.61-.38-.17-.11-.29-.14-.52-.26-.23-.12-.69-.38-1.16-.35-.43.03-.96.67-1.3.81-.32.14-.61.29-.87.4-.32.14-.58.26-.9.12-.46-.2-.35-1.04-.09-1.27.41-.32.75-.58,1.07-.93.2-.23.32-.55.49-.72.17-.17.38-.17.55-.2.2-.06.43-.12.58.06.14.14.14.35.29.49.2.2.38.2.66.17h0Zm3.44,6.34c.17.12.38.23.58.35.14.09.26.12.4.17v1.88c-.35.06-.78-.17-.98-.43v-1.97Zm.98-.87v-1.79c-.29-.17-.55-.32-.81-.46l-.17-.09v2.17c.26,0,.58.03.81.14.06,0,.12.03.17.03h0Zm-.98-7.26c.2-.29.4-.55.58-.72.14-.17.29-.4.4-.58v2.05c-.06.06-.09.11-.14.17.03.03.06.06.14.09v2.63c-.14.03-.12,0-.23.09-.03.06.12.2.23.23v.98l-.06-.03c-.32-.2-.64-.41-.93-.58v-1.53c.14,0,.29-.03.35-.11.38-.38.55-.61.12-.78-.03.03-.23-.17-.46.03v-1.94h0Zm2.05,5.67v-1.39c-.06-.06-.12-.17-.12-.2.06-.06.09-.09.12-.09v-1.71c-.12,0-.26-.03-.29-.06.09-.17.12-.17.29-.26h0v-1.36c-.03.06-.09.14-.17.2-.2.2-.66.26-.9.2v2.63l.03-.03c.15-.03.12.12.15.12.09.14.06.17-.15.23h-.03v.98c.4.26.78.52,1.07.72Zm-1.07,2.98c.17.06.32.09.35.2.17.58.2.66-.03,1.36-.06.2-.17.29-.32.32v-1.88h0Zm1.07-1.53c-.09-.06-.2-.09-.35-.12-.23.03-.4.32-.72.26v-1.79c.4.26.81.52,1.07.69v.96h0Zm-1.07-8.42c.12-.23.23-.4.38-.4.26,0,.55.32.69.55v1.04s-.09-.06-.15-.06c-.09,0-.12.09-.14.11-.29.29-.55.52-.78.81v-2.05h0Zm1.07.14s.06.06.06.09c.09.2.29-.06.43,0,.29.09.55.32.58.52.06.23.14.49.29.61v2.86c-.06-.03-.09-.06-.12-.09-.17-.09-.23.12-.29.23-.03.09.06.23.2.29.08.09.14.14.2.2v1.79s-.03.09,0,.12v2.63c-.41-.29-.81-.72-1.36-.98v-.96c.09.03.14.09.2.11.18.12.41,0,.35-.17,0-.06-.23-.2-.55-.43v-1.39c.06.03.09.06.14.06.09-.03.23,0,.23-.14-.03-.09-.03-.14-.18-.2-.08-.06-.14-.06-.2,0v-1.71c.09,0,.12-.03.14-.06.17-.15.23-.2.06-.29-.03.03-.06-.03-.2.03v-1.36c.2-.29.23-.55,0-.72v-1.04Zm1.36,6.62h.03c.93.43,1.13.67,1.27,1.39.12.61.32,1.04-.17,1.39-.43.17-.78.06-1.13-.14v-2.63Zm0-5.41c.09.09.2.12.35.09.49-.06.78-1.07,1.36-.72.32.26.32.81.35,1.13,0,.4-.26.61-1.27.78-.06.03-.09,0-.26.17-.14.23.26.46-.14.81-.2.17.64.84.69.95.06.15.26.03.23-.2-.03-.06-.06-.29-.14-.49-.12-.35-.29-.72-.2-.87.09-.2.43,0,.81.26.29.2.84.2,1.01.46.2.26.38.38.12,1.42-.06.17-.38.29-.67.38-.46.17-.72.44-1.19.61-.26.11-.9.35-1.04.52v-1.79c.09.06.17.09.26.09.09-.03.2-.17.17-.26-.12-.17-.29-.35-.43-.46v-2.86h0Z"/>
      <path class="cls-2" d="m55.93,13.57c.64.2,1.07.23,1.1.12.17-.52.41-1.45.43-2.2.03-.38.35-.52.58-.58.55-.17.72-.26.98-.17.46.2.72.61.96,1.13.09.26.32-.03-.2,1.1-.23.55-.17.64-.09.75.23.17.52.14.98.14.55-.03.9-.75,1.59.69.11.17.14.4-.09.61-.29.23-.84.26-1.5.43-.87.2-2.11-.03-2.08.55.17,1.45,1.1,3.65,2.61,5.41.38.46.9.9,1.5,1.24.87.49,1.59.9,1.07,1.01-.81.17-3.56-.08-4.2-.67-.66-.64-2.02-4.86-2.23-5.7-.03-.03-.09-.06-.15.03-.66.84-2.05,2.37-3.15,2.86-.49.2-1.04-.12-1.19-.32-.17-.2-1.45-.84-1.56-1.33-.03-.29.15-.26.29-.23,1.79.38,2.17-.09,2.66-.29,1.3-.55,1.85-1.97,1.74-2.06-1.68-.29-2.29-.23-2.63-.95-.49-2.29.41-2.4,1.33-2.06.46.2,1.07.43,1.24.46Z"/>
      <path class="cls-2" d="m36.14,18.2c.23-.03.43,0,.72.23.78.52,1.01,1.53,1.39,2.05.14,0,.4-.17.72-.37.41-.29.87-.58.78-.7-.32-.61-2.03-4.63-2.37-5.15-.03-.06-.14-.2-.17-.26-.64-.84.12-1.5.4-1.59.46-.14,1.77.29,1.79.75-.06.49.43,1.65.9,2.75.43.93.81,1.85,1.01,2.17.12.29,1.13-.58,1.45-.93.43-.29-.35-1.79-.06-2.26.12-.23,1.36-.55,1.97.35.29.52.43,1.27.58,1.97.12.49.29,1.1.38,1.3.09.23-.4,1.53-.61,1.88-.41.32-1.07-.72-1.33-1.3-.14-.32-.17-.43-.29-.46-.29.09-.96.55-1.27.96-.17.2-.12.58-.38.78-1.21.49-2.34,1.27-2.43,1.53-.06.14-.43.9-.46,1.07-.03.17-.52.23-.64.32-.26.26-.67-.2-1.22-.52-.58-.29-.43-.66-.46-1.27,0-.67-.38-1.71-.72-2.37-.17-.35-.38-.75.32-.92Z"/>
      <path class="cls-2" d="m22.2,25.95c.23-.12.26-.35.32-.69.26-.93.29-1.27.58-1.88-.46-.43-.98-.84-1.42-1.27-.09-.09-.2-.14-.29-.17-.29-.09-.46-.4-.46-.78v-.12c0-.29.09-.61.29-.92.11-.17,1.21-.58,1.53-.26.46.46.95,1.07,1.45,1.42.03-.03.09-.09.14-.11v3.85c-.06-.06-.12-.09-.14-.12-.17,0-.15.23-.15.32-.11.43-.35.75-.64.93-.17.06.49.58.93.78v3.21c-.09-.03-.17-.06-.29-.09-.43-.03-.81-.03-1.16-.38-.2-.43-.32-.64-.41-.92-.06-.12-.14-.23-.26-.37-.35-.38-.61-.73-.81-1.22-.09-.29.09-1.1.78-1.19Zm2.14-4.8c.23-.2.52-.49.81-.81.26-.38.4-1.04.66-1.36.06-.06.12-.09.17-.12v2.43c-.38.14-.69.72-.78.98.03.17.44.67.78.98v6.83c-.17.17-.4.32-.64.35-.26.03-.55-.2-1.01-.32v-3.21c.14.09.29.12.35.06.43-.35.49-.43.61-.9.06-.17-.61-.81-.96-1.07v-3.85Zm1.65-2.29c.52-.32,1.5-.29,1.97-.09.43.23.49.72.38,1.07l-.12.26c-.12.35.03,1.27.14,1.36.14.17.26.29.55.23.23.03.64.9.46,1.3-.06.14-.08.29-.29.52-.49.46-.78,1.21-.93,1.97,1.5,1.5,2.81,2.98,4.25,4.51.69.87,1.16,1.85.81,2.29-.29.26-1.22-.06-2.23-1.01l-4.19-3.93c-.2.32-.4.84-.66,1.45v.52c.03.17.12.38.06.52-.06.09-.12.17-.2.26v-6.83c.2.2.4.35.46.32.35-.26.38-.95.29-1.21-.09-.38-.26-.93-.66-1.1-.03.03-.06.03-.09.03v-2.43Z"/>
      <path class="cls-2" d="m49.61,0C22.21,0,0,22.21,0,49.61s22.21,49.61,49.61,49.61,49.61-22.21,49.61-49.61S77,0,49.61,0Zm0,95.94c-25.59,0-46.33-20.74-46.33-46.33S24.02,3.27,49.61,3.27s46.33,20.74,46.33,46.33-20.74,46.33-46.33,46.33Zm0-91.32C24.76,4.62,4.62,24.76,4.62,49.61s20.14,44.99,44.99,44.99,44.99-20.14,44.99-44.99S74.45,4.62,49.61,4.62Zm0,89.03c-24.33,0-44.04-19.72-44.04-44.04S25.28,5.56,49.61,5.56s44.04,19.72,44.04,44.04-19.72,44.04-44.04,44.04Z"/>
      <g>
        <path class="cls-1" d="m19.53,42.35l-2.46-.64.06-.22c.64.07,1.21-.05,1.7-.35.49-.3.8-.69.94-1.17.11-.37.09-.69-.05-.96-.14-.27-.33-.44-.59-.52-.16-.05-.32-.05-.46,0-.2.06-.41.18-.65.36-.17.14-.49.47-.97.99-.67.74-1.23,1.2-1.69,1.39-.46.19-.93.21-1.41.08-.61-.17-1.07-.56-1.38-1.17-.3-.6-.35-1.27-.14-2.01.06-.23.15-.44.26-.63.11-.19.27-.42.48-.7.12-.15.2-.28.23-.4.03-.09.02-.2-.02-.33-.04-.12-.13-.24-.26-.35l.06-.2,2.77.79-.06.2c-.82-.06-1.5.07-2.04.41-.54.34-.88.77-1.03,1.29-.12.4-.1.76.05,1.06.15.3.37.5.67.58.17.05.35.05.54,0,.19-.05.38-.14.58-.29.2-.15.48-.42.85-.83.52-.57.93-.97,1.25-1.2.31-.23.64-.38.96-.45.33-.08.67-.06,1.01.03.58.17,1.02.52,1.31,1.07.29.55.34,1.15.15,1.8-.07.24-.16.46-.28.67-.09.16-.23.34-.42.55-.19.21-.29.36-.32.46-.03.09-.02.18.02.25.04.07.17.16.37.27l-.05.16Z"/>
        <path class="cls-1" d="m19.18,42.52l-.53,3.9-.21-.03.03-.19c.04-.29.04-.5,0-.62-.05-.12-.12-.21-.22-.27-.1-.06-.37-.12-.8-.18l-3.7-.5c-.68-.09-1.13-.1-1.36-.03-.23.07-.44.22-.61.43-.18.21-.29.5-.34.86-.06.41-.01.77.13,1.08.15.31.37.56.67.75.3.19.86.33,1.66.44l3.08.42c.34.05.58.04.74,0,.15-.05.27-.13.34-.23.11-.16.18-.39.22-.69l.21.03-.36,2.61-.21-.03.02-.16c.03-.21.01-.39-.06-.55-.07-.15-.18-.27-.34-.36-.11-.06-.32-.12-.63-.16l-2.87-.39c-.89-.12-1.52-.27-1.9-.44-.38-.17-.7-.51-.97-1-.27-.5-.35-1.14-.24-1.92.09-.65.25-1.15.47-1.48.3-.45.66-.76,1.05-.91.4-.15.91-.18,1.54-.1l3.7.5c.43.06.71.07.82.04.11-.03.21-.11.29-.22.08-.11.14-.32.18-.64l.21.03Z"/>
        <path class="cls-1" d="m18.28,51.74l-4.53,4,3.27-.17c.46-.02.76-.1.92-.24.21-.19.3-.5.27-.92h.21s.13,2.51.13,2.51h-.21c-.06-.31-.12-.52-.19-.63-.07-.11-.18-.19-.33-.24-.15-.05-.41-.07-.77-.05l-6.34.32v-.19s6.07-5.47,6.07-5.47l-4.84.25c-.44.02-.73.14-.87.35-.14.21-.21.44-.2.7v.18s-.2.01-.2.01l-.14-2.7h.21c.02.41.13.7.3.85.18.16.47.22.87.2l5.37-.27.19-.17c.19-.17.32-.32.38-.45.06-.13.08-.31.08-.54h.21s.14,2.69.14,2.69Z"/>
        <path class="cls-1" d="m21.85,66.2l-.19.08c-.12-.22-.26-.37-.42-.46-.22-.12-.72-.23-1.53-.35l-3.18-.52-1.71.68c-.37.14-.59.25-.66.33-.07.07-.12.18-.15.32-.02.14,0,.3.08.49l.16.4-.19.08-1.58-3.98.19-.08.15.37c.08.21.19.36.31.45.08.07.2.11.34.11.1,0,.33-.06.68-.2l1.42-.56,2.37-2.87c.47-.57.73-.94.78-1.12.05-.18.04-.38-.05-.61l.19-.08,1.35,3.4-.19.08-.06-.15c-.08-.21-.17-.34-.26-.4-.09-.06-.17-.07-.24-.05-.13.05-.39.31-.78.79l-1.84,2.21,2.65.43c.65.11,1.06.13,1.23.06.09-.04.16-.11.18-.23.04-.15,0-.39-.1-.72l.19-.08.86,2.16Z"/>
        <path class="cls-1" d="m18.66,70.85l-1.46-2.26-.8.13c-.27.05-.46.11-.6.2-.18.12-.27.27-.26.48,0,.12.1.35.29.7l-.17.11-1.38-2.13.17-.11c.18.21.4.33.65.38.25.05.69.02,1.32-.08l6.59-1.02.06.09-3.76,5.71c-.35.54-.55.92-.59,1.15-.03.17.01.36.12.56l-.17.11-2-3.1.18-.11.08.13c.16.25.31.4.44.46.09.04.19.02.28-.04.06-.04.11-.08.16-.14.02-.02.11-.15.26-.37l.58-.86Zm.25-.39l1.59-2.38-2.84.44,1.25,1.94Z"/>
        <path class="cls-1" d="m28.65,74.15l-1.5,1.42-.14-.15c.26-.42.42-.75.47-1,.05-.25.03-.51-.05-.78-.05-.15-.2-.35-.44-.61l-.39-.41-4.26,4.05c-.28.27-.44.45-.48.55-.04.1-.05.22-.01.36.03.14.13.29.27.45l.18.18-.15.14-2.75-2.89.15-.14.17.18c.15.16.3.26.45.31.1.03.22.03.35-.02.09-.03.28-.18.56-.44l4.26-4.05-.38-.4c-.35-.37-.69-.57-1.01-.59-.44-.03-.9.12-1.37.45l-.15-.15,1.5-1.42,4.72,4.96Z"/>
        <path class="cls-1" d="m28.09,79.43l-2.18-1.69.6-.78,2.18,1.69-.6.77Z"/>
        <path class="cls-1" d="m34.98,78.05l-1.27,2.21-.2-.12c.24-.6.28-1.18.11-1.73-.16-.55-.45-.96-.88-1.21-.33-.2-.64-.27-.94-.21-.3.06-.51.2-.65.43-.09.14-.13.29-.13.45,0,.21.06.45.17.72.09.2.32.6.7,1.2.53.84.83,1.5.9,2,.06.49-.04.96-.3,1.38-.33.54-.83.88-1.49,1.02s-1.32,0-1.98-.39c-.21-.12-.39-.26-.54-.42-.16-.15-.34-.37-.54-.66-.11-.16-.22-.27-.32-.33-.08-.05-.19-.07-.32-.06-.13,0-.27.06-.4.16l-.18-.11,1.5-2.46.18.11c-.28.78-.33,1.47-.15,2.08.18.61.5,1.05.97,1.34.36.22.7.29,1.04.23.33-.07.58-.23.73-.49.09-.15.14-.33.15-.52,0-.19-.04-.41-.12-.64-.09-.23-.28-.58-.58-1.04-.41-.65-.69-1.16-.82-1.52-.14-.36-.2-.71-.18-1.05.02-.34.11-.66.3-.96.32-.52.77-.84,1.38-.98.6-.13,1.19-.02,1.77.33.21.13.4.28.57.45.13.13.27.31.42.55.15.24.27.38.36.43.08.05.16.07.24.04.08-.02.2-.12.36-.29l.14.09Z"/>
        <path class="cls-1" d="m37.37,79.79l-1.15,2.88.14.06c.45.18.83.17,1.15-.03.31-.2.61-.57.88-1.09l.2.08-1.48,3.71-.2-.08c.12-.42.16-.79.13-1.1-.03-.31-.12-.55-.26-.71-.14-.16-.38-.31-.72-.44l-.8,1.99c-.15.39-.23.64-.24.74,0,.1.03.2.1.29.07.09.2.18.4.26l.42.17c.66.26,1.25.32,1.77.17.52-.15.99-.5,1.42-1.06l.19.08-1.22,2.12-6.12-2.44.08-.19.24.09c.2.08.39.11.54.09.11-.01.21-.07.31-.17.07-.07.18-.28.32-.64l1.86-4.66c.13-.32.2-.52.21-.6.01-.14-.01-.25-.08-.36-.09-.15-.26-.27-.48-.36l-.24-.09.08-.19,5.93,2.36-.83,2.09-.2-.08c.1-.55.11-.97.01-1.27-.09-.29-.29-.56-.58-.8-.17-.14-.52-.32-1.06-.53l-.73-.29Z"/>
        <path class="cls-1" d="m43.34,81.26l2.85,5.32.59-3.22c.08-.45.07-.77-.03-.95-.14-.25-.42-.4-.83-.47l.04-.21,2.48.45-.04.2c-.32-.02-.55,0-.67.04-.12.04-.22.13-.31.27-.09.13-.16.38-.23.73l-1.14,6.24-.19-.03-3.94-7.17-.87,4.77c-.08.43-.03.74.14.93.17.19.38.3.64.35l.18.03-.04.21-2.66-.48.04-.2c.41.07.72.04.91-.1.19-.14.32-.4.4-.8l.96-5.29-.12-.23c-.12-.23-.24-.38-.35-.47-.11-.08-.28-.15-.51-.2l.04-.2,2.66.48Z"/>
        <path class="cls-1" d="m50.64,82.19l3.89-.57.03.21-.2.03c-.29.04-.49.1-.59.18-.1.08-.17.17-.2.29-.03.11-.02.39.05.82l.54,3.69c.1.68.22,1.11.35,1.32.14.2.33.36.58.47.25.11.56.14.92.09.41-.06.74-.2,1-.43.26-.23.44-.51.53-.85.09-.34.08-.92-.03-1.72l-.45-3.08c-.05-.34-.12-.57-.21-.71s-.2-.22-.31-.26c-.18-.06-.42-.07-.73-.03l-.03-.2,2.61-.38.03.21-.16.02c-.21.03-.38.1-.51.21-.13.11-.21.25-.25.43-.03.13-.02.34.02.65l.42,2.87c.13.89.17,1.54.11,1.95-.06.41-.29.81-.69,1.21-.4.4-1,.65-1.78.77-.65.09-1.17.08-1.55-.04-.52-.16-.91-.42-1.16-.76-.25-.34-.43-.82-.52-1.45l-.54-3.69c-.06-.43-.13-.7-.19-.8-.06-.1-.16-.17-.29-.22-.13-.05-.35-.04-.67,0l-.03-.21Z"/>
        <path class="cls-1" d="m60.25,80.29l5.15,3.16-1.12-3.08c-.16-.43-.33-.7-.5-.8-.24-.14-.56-.14-.96.01l-.07-.2,2.37-.86.07.2c-.29.15-.47.27-.56.37-.08.1-.13.23-.13.39,0,.16.05.41.17.75l2.17,5.97-.18.07-7.02-4.2,1.66,4.55c.15.41.35.66.59.73.24.08.48.07.73-.02l.17-.06.07.2-2.54.93-.07-.2c.39-.15.64-.33.74-.54.1-.21.08-.51-.06-.89l-1.84-5.06-.22-.13c-.22-.14-.4-.21-.54-.23-.14-.02-.32,0-.54.08l-.07-.2,2.54-.93Z"/>
        <path class="cls-1" d="m72.14,82.88l.1.18-3.46,1.97-.1-.18.22-.12c.19-.11.33-.23.4-.37.06-.09.08-.21.06-.35,0-.1-.11-.31-.3-.65l-2.48-4.36c-.19-.34-.33-.54-.42-.6-.08-.06-.2-.1-.34-.1-.14,0-.31.05-.5.16l-.22.12-.1-.18,3.46-1.97.1.18-.22.13c-.19.11-.33.23-.41.37-.06.09-.08.21-.07.35,0,.1.11.31.3.65l2.48,4.36c.19.34.33.54.42.6.09.06.2.1.35.1.15,0,.31-.05.5-.16l.22-.13Z"/>
        <path class="cls-1" d="m74.42,71.69l.13.16c-.18.21-.28.48-.29.82,0,.25.1.73.3,1.47l1.7,6.16-.14.12-5.88-2.99c-.71-.36-1.14-.56-1.31-.59-.16-.03-.37.04-.62.2l-.13-.16,2.81-2.33.13.16-.1.08c-.25.21-.4.39-.44.53-.03.1-.01.19.06.27.04.05.11.1.19.15.08.05.32.18.71.38l3.67,1.88-1-3.56c-.12-.43-.21-.71-.27-.84-.06-.13-.12-.24-.18-.31-.07-.09-.16-.14-.26-.17-.1-.03-.21-.02-.33.02-.17.05-.35.17-.56.34l-.13-.16,1.93-1.6Z"/>
        <path class="cls-1" d="m75.92,70.18l2.49,1.85.09-.12c.29-.39.37-.76.26-1.12-.11-.35-.39-.73-.83-1.13l.13-.17,3.21,2.38-.13.17c-.38-.22-.72-.36-1.03-.41-.31-.05-.56-.03-.75.07-.19.1-.4.29-.61.58l1.73,1.28c.34.25.55.39.65.42.1.03.2.02.3-.02.11-.04.22-.15.35-.33l.27-.37c.42-.57.63-1.13.62-1.67,0-.54-.23-1.09-.66-1.64l.12-.17,1.74,1.72-3.92,5.29-.17-.12.15-.2c.13-.18.21-.34.22-.5.02-.11-.01-.22-.08-.34-.05-.09-.23-.24-.53-.47l-4.03-2.99c-.28-.21-.45-.32-.53-.36-.13-.05-.25-.05-.37-.01-.17.05-.33.18-.48.38l-.15.2-.17-.12,3.8-5.12,1.81,1.34-.13.17c-.51-.24-.92-.35-1.23-.34-.31.02-.62.13-.92.36-.18.13-.44.42-.78.89l-.47.63Z"/>
        <path class="cls-1" d="m82.77,65.94l1.99.79c.38.15.63.23.75.22.12,0,.23-.06.34-.15.11-.09.22-.3.35-.63l.19.08-1.44,3.63-.19-.08c.13-.33.19-.56.17-.7-.01-.14-.06-.25-.14-.34-.08-.09-.31-.21-.69-.36l-4.6-1.83c-.38-.15-.63-.22-.75-.22-.12,0-.23.06-.34.15-.11.09-.22.3-.35.63l-.19-.08,1.31-3.29c.34-.86.65-1.46.93-1.81.28-.35.62-.59,1.04-.71.42-.12.84-.1,1.27.07.52.21.88.57,1.07,1.08.12.33.15.73.09,1.2l3.07-.75c.4-.1.66-.18.77-.25.17-.1.29-.24.37-.43l.19.08-.89,2.23-4.14,1-.18.47Zm-3.47-1.38l3.1,1.23.12-.3c.19-.48.29-.86.3-1.14,0-.28-.08-.53-.25-.76-.18-.23-.45-.42-.83-.57-.54-.21-.99-.25-1.35-.1-.36.15-.65.5-.87,1.07l-.22.56Z"/>
        <path class="cls-1" d="m81.08,55.47l2.52.36-.04.23c-.65,0-1.2.18-1.65.54-.45.36-.72.78-.8,1.27-.06.38-.01.69.15.95.17.25.38.4.64.45.17.03.32.01.46-.04.19-.08.39-.22.6-.43.15-.15.43-.52.85-1.1.58-.81,1.09-1.33,1.52-1.58.44-.24.9-.32,1.39-.24.63.1,1.13.44,1.5,1,.37.57.5,1.23.37,1.98-.04.24-.1.46-.18.66-.08.2-.22.45-.4.75-.1.17-.17.31-.18.42-.02.1,0,.2.06.32.06.12.15.23.29.32l-.03.21-2.84-.47.03-.21c.83-.03,1.49-.24,1.98-.64.5-.39.79-.86.88-1.4.07-.41.01-.76-.17-1.05-.19-.28-.43-.45-.73-.5-.18-.03-.36-.01-.54.06-.18.07-.36.18-.54.35-.18.17-.43.47-.76.92-.45.63-.82,1.07-1.11,1.33-.29.26-.59.45-.91.56-.32.11-.65.14-1,.08-.6-.1-1.07-.4-1.42-.92-.35-.51-.47-1.1-.36-1.77.04-.24.11-.48.21-.7.07-.17.19-.36.35-.59.16-.23.25-.39.27-.49.02-.1,0-.18-.05-.24-.05-.07-.18-.14-.4-.23l.03-.17Z"/>
        <path class="cls-1" d="m89.16,51.03h.21s-.06,3.99-.06,3.99h-.21s0-.26,0-.26c0-.22-.03-.4-.11-.54-.05-.1-.14-.17-.27-.23-.09-.04-.33-.07-.71-.07l-5.02-.07c-.39,0-.63.01-.73.05-.1.04-.18.12-.26.25-.08.12-.11.29-.12.51v.25s-.21,0-.21,0l.06-3.99h.21s0,.26,0,.26c0,.22.03.4.11.54.05.1.14.18.27.23.09.04.32.07.71.07l5.02.07c.39,0,.63-.01.73-.05.1-.04.19-.12.26-.25.08-.12.11-.29.12-.51v-.25Z"/>
        <path class="cls-1" d="m81.34,43.91l2.05-.27.03.2c-.46.18-.78.36-.97.53-.19.17-.33.39-.42.66-.05.15-.05.4,0,.75l.07.56,5.83-.76c.39-.05.62-.1.72-.16.09-.05.17-.15.22-.28.06-.13.07-.31.04-.52l-.03-.25.21-.03.52,3.96-.21.03-.03-.25c-.03-.22-.09-.39-.19-.51-.06-.09-.16-.15-.3-.19-.09-.03-.33-.02-.71.03l-5.83.76.07.55c.07.51.22.87.47,1.07.34.28.8.43,1.37.44l.03.21-2.04.27-.89-6.79Z"/>
        <path class="cls-1" d="m79.05,35.93l.2-.06c.1.23.23.4.37.49.2.14.7.3,1.48.49l3.11.81,1.77-.52c.38-.11.61-.2.69-.26.08-.07.14-.17.17-.31.04-.14.03-.3-.03-.5l-.12-.41.2-.06,1.2,4.11-.2.06-.11-.38c-.06-.22-.15-.38-.26-.48-.08-.08-.19-.13-.32-.15-.1-.01-.33.03-.7.14l-1.47.43-2.63,2.64c-.52.52-.81.87-.88,1.04-.07.17-.07.38,0,.61l-.2.06-1.03-3.51.2-.06.05.16c.06.21.14.35.22.42.09.07.16.09.23.07.13-.04.41-.28.85-.72l2.04-2.03-2.59-.67c-.64-.17-1.04-.23-1.22-.18-.1.03-.16.1-.2.21-.05.15-.04.39.04.72l-.2.06-.65-2.23Z"/>
      </g>
      <path class="cls-1" d="m49.61,48.58c-.19,0-.34.15-.34.34v2.72c0,.19.15.34.34.34s.34-.15.34-.34v-2.72c0-.19-.15-.34-.34-.34Zm11.03-12.1c-1.43-4.74-5.83-8.19-11.03-8.19s-9.6,3.45-11.03,8.19c-7.81.45-14.01,6.92-14.01,14.85s6.2,14.4,14.01,14.85c1.43,4.74,5.83,8.19,11.03,8.19s9.6-3.45,11.03-8.19c7.81-.45,14.01-6.92,14.01-14.85s-6.2-14.4-14.01-14.85Zm11.93,15.66c0,.16-.02.31-.03.47,0,.07-.02.15-.03.22-.02.14-.03.27-.05.4-.01.08-.03.16-.04.24-.02.13-.04.25-.07.37-.02.08-.04.17-.05.25-.03.12-.05.24-.08.36-.02.08-.04.17-.07.25-.03.11-.06.23-.1.34-.03.08-.05.17-.08.25-.04.11-.07.22-.11.33-.03.08-.06.17-.09.25-.04.11-.08.21-.13.32-.03.08-.07.16-.1.24-.05.1-.09.21-.14.31-.04.08-.07.16-.11.24-.05.1-.1.2-.15.3-.04.08-.08.16-.12.23-.05.1-.11.2-.17.3-.04.08-.09.15-.13.22-.06.1-.12.19-.19.29-.05.07-.09.14-.14.21-.07.1-.13.19-.21.29-.05.07-.09.13-.14.2-.07.1-.15.19-.23.29-.05.06-.09.12-.14.18-.09.11-.19.22-.29.33-.04.04-.07.08-.1.12-.13.15-.27.29-.41.43-.05.05-.11.1-.16.16-.09.09-.18.17-.27.25-.07.06-.13.12-.2.18-.08.07-.16.14-.25.21-.07.06-.15.12-.22.18-.08.06-.16.13-.25.19-.08.06-.16.12-.24.17-.08.06-.16.12-.25.18-.08.06-.17.11-.25.17-.08.05-.17.11-.25.16-.09.05-.17.1-.26.16-.08.05-.17.1-.26.15-.09.05-.18.1-.27.15-.09.04-.17.09-.26.13-.09.05-.19.09-.28.14-.09.04-.18.08-.27.12-.1.04-.19.08-.29.12-.09.04-.18.07-.27.11-.1.04-.2.08-.3.11-.09.03-.18.06-.27.09-.1.03-.2.07-.31.1-.09.03-.18.05-.28.08-.1.03-.21.06-.32.09-.09.02-.18.04-.28.06-.11.02-.22.05-.33.07-.09.02-.18.03-.27.05-.11.02-.23.04-.34.06-.09.01-.17.02-.26.03-.54.07-1.09.11-1.65.11-.27,0-.53-.01-.79-.03-.09.7-.26,1.38-.5,2.02h0c-.04.12-.09.23-.14.35-.03.06-.05.12-.08.18-.03.06-.06.13-.09.19-.03.06-.06.12-.09.19-.03.06-.06.12-.1.19-.03.06-.06.12-.09.18-.04.07-.08.15-.12.22-.05.08-.1.17-.15.25-.04.07-.08.13-.13.2-.04.05-.07.11-.11.16-.04.06-.08.12-.12.17-.04.05-.08.11-.12.16-.05.06-.09.12-.14.18-.04.05-.07.09-.11.14-.08.1-.16.19-.25.28-.04.04-.08.08-.12.13-.05.06-.11.12-.16.17-.04.04-.09.09-.13.13-.06.05-.11.11-.17.16-.04.04-.08.08-.13.12-.08.07-.16.14-.24.21-.04.04-.08.07-.13.11-.08.06-.16.13-.24.19-.04.03-.09.06-.13.1-.07.05-.14.1-.21.15-.04.03-.09.06-.14.09-.08.05-.16.1-.24.15-.04.02-.07.05-.11.07-.11.07-.23.14-.35.2-.04.02-.07.04-.11.06-.09.05-.17.09-.26.13-.05.02-.09.04-.14.07-.09.04-.17.08-.26.12-.04.02-.09.04-.13.06-.13.05-.25.1-.38.15,0,0-.02,0-.03.01-.12.04-.25.09-.38.13-.04.01-.09.03-.13.04-.1.03-.19.06-.29.08-.05.01-.09.02-.14.04-.11.03-.21.05-.32.07-.03,0-.06.02-.1.02-.14.03-.28.05-.42.07-.03,0-.07,0-.1.01-.11.02-.22.03-.33.04-.05,0-.1,0-.14.01-.1,0-.21.02-.31.02-.04,0-.09,0-.13,0-.15,0-.29.01-.44.01h0c-.15,0-.3,0-.44-.01-.05,0-.09,0-.14,0-.1,0-.21-.01-.31-.02-.05,0-.1,0-.15-.01-.11-.01-.22-.03-.32-.04-.04,0-.07,0-.11-.02-.14-.02-.28-.05-.42-.07-.04,0-.07-.02-.11-.02-.1-.02-.21-.04-.31-.07-.05-.01-.1-.02-.15-.04-.09-.02-.18-.05-.28-.08-.05-.01-.09-.03-.14-.04-.12-.04-.23-.08-.35-.12-.03,0-.05-.02-.08-.03-.12-.04-.23-.09-.35-.14-.05-.02-.09-.04-.14-.06-.08-.04-.16-.07-.24-.11-.05-.02-.1-.05-.15-.07-.08-.04-.16-.08-.24-.12-.04-.02-.09-.05-.13-.07-.11-.06-.23-.13-.34-.19-.04-.03-.09-.06-.13-.08-.07-.04-.14-.09-.21-.14-.05-.03-.1-.07-.15-.1-.06-.04-.12-.09-.19-.13-.05-.04-.1-.07-.15-.11-.07-.05-.13-.11-.2-.16-.07-.06-.14-.11-.21-.17-.06-.06-.13-.11-.19-.17-.05-.04-.1-.09-.15-.14-.05-.05-.1-.09-.15-.14-.05-.05-.1-.1-.15-.15-.05-.05-.09-.1-.14-.14-.05-.05-.1-.1-.14-.15-.07-.08-.14-.16-.21-.24-.05-.07-.11-.13-.16-.2-.04-.05-.08-.1-.11-.14-.05-.06-.09-.12-.14-.18-.03-.05-.07-.1-.1-.14-.04-.06-.09-.13-.13-.19-.03-.05-.06-.1-.09-.14-.08-.12-.15-.24-.22-.37-.03-.05-.05-.09-.08-.14-.04-.07-.08-.14-.11-.21-.03-.05-.05-.1-.08-.15-.03-.07-.07-.14-.1-.21-.02-.05-.05-.1-.07-.15-.03-.07-.07-.15-.1-.22,0-.02-.02-.04-.03-.07-.29-.72-.5-1.49-.61-2.29-.26.02-.52.03-.79.03-.57,0-1.12-.04-1.67-.11-.08-.01-.16-.02-.24-.03-.12-.02-.24-.04-.35-.06-.09-.02-.17-.03-.26-.05-.11-.02-.23-.05-.34-.08-.09-.02-.17-.04-.26-.06-.11-.03-.22-.06-.33-.09-.09-.02-.17-.05-.26-.07-.11-.03-.21-.07-.32-.1-.09-.03-.17-.06-.26-.09-.11-.04-.21-.08-.31-.12-.08-.03-.17-.07-.25-.1-.1-.04-.2-.09-.3-.13-.08-.04-.17-.07-.25-.11-.1-.05-.2-.09-.3-.14-.08-.04-.16-.08-.24-.12-.1-.05-.19-.1-.29-.15-.08-.04-.16-.09-.24-.14-.09-.05-.19-.11-.28-.17-.08-.05-.15-.1-.23-.15-.09-.06-.18-.12-.27-.18-.08-.05-.15-.11-.22-.16-.09-.06-.18-.13-.26-.19-.07-.06-.14-.11-.21-.17-.08-.07-.17-.13-.25-.2-.07-.06-.14-.12-.21-.18-.08-.07-.16-.14-.24-.21-.07-.06-.13-.12-.19-.19-.08-.08-.16-.15-.23-.23-.05-.05-.1-.11-.16-.16-.15-.16-.3-.32-.44-.49-.06-.07-.13-.14-.19-.22-.06-.08-.13-.16-.19-.24-.06-.08-.12-.15-.18-.23-.06-.08-.12-.16-.18-.24-.06-.08-.12-.16-.17-.24-.06-.08-.11-.17-.16-.25-.06-.08-.11-.17-.16-.25-.05-.08-.1-.17-.15-.26-.05-.09-.1-.17-.15-.26-.05-.09-.09-.17-.14-.26-.05-.09-.09-.18-.14-.27-.04-.09-.09-.18-.13-.27-.04-.09-.09-.19-.13-.28-.04-.09-.08-.18-.12-.27-.04-.1-.08-.19-.11-.29-.04-.09-.07-.19-.1-.28-.04-.1-.07-.2-.1-.3-.03-.09-.06-.19-.09-.28-.03-.1-.06-.2-.09-.31-.03-.09-.05-.19-.08-.29-.03-.1-.05-.21-.07-.31-.02-.1-.04-.19-.06-.29-.02-.11-.04-.22-.06-.33-.02-.1-.03-.19-.05-.29-.02-.11-.03-.23-.04-.34-.01-.09-.02-.19-.03-.28-.01-.12-.02-.25-.03-.37,0-.09-.01-.17-.02-.26,0-.16-.01-.33-.01-.5,0-.05,0-.09,0-.14s0-.09,0-.14c0-.17,0-.33.01-.5,0-.09.01-.17.02-.26,0-.12.02-.25.03-.37,0-.09.02-.19.03-.28.01-.11.03-.23.04-.34.01-.1.03-.19.05-.29.02-.11.04-.22.06-.33.02-.1.04-.19.06-.29.02-.1.05-.21.07-.31.02-.1.05-.19.08-.29.03-.1.06-.2.09-.31.03-.1.06-.19.09-.28.03-.1.07-.2.1-.3.03-.09.07-.19.1-.28.04-.1.07-.19.11-.29.04-.09.08-.18.12-.27.04-.09.08-.19.13-.28.04-.09.08-.18.13-.27.05-.09.09-.18.14-.27.05-.09.09-.18.14-.26.05-.09.1-.17.15-.26.05-.09.1-.17.15-.26.05-.08.11-.17.16-.25.05-.08.11-.17.16-.25.06-.08.11-.16.17-.24.06-.08.12-.16.18-.24.06-.08.12-.16.18-.23.06-.08.12-.16.19-.24.06-.07.13-.14.19-.22.14-.17.29-.33.44-.49.05-.05.1-.11.16-.16.08-.08.16-.15.23-.23.07-.06.13-.12.19-.19.08-.07.16-.14.24-.21.07-.06.14-.12.21-.18.08-.07.17-.13.25-.2.07-.06.14-.11.21-.17.08-.07.17-.13.26-.19.07-.05.15-.11.22-.16.09-.06.18-.12.27-.18.08-.05.15-.1.23-.15.09-.06.18-.11.28-.17.08-.05.16-.09.24-.14.1-.05.19-.1.29-.15.08-.04.16-.08.24-.12.1-.05.2-.1.3-.14.08-.04.17-.08.25-.11.1-.04.2-.09.3-.13.08-.03.17-.07.25-.1.1-.04.21-.08.31-.12.09-.03.17-.06.26-.09.11-.04.21-.07.32-.1.09-.03.17-.05.26-.07.11-.03.22-.06.33-.09.09-.02.17-.04.26-.06.11-.03.23-.05.34-.08.09-.02.17-.03.26-.05.12-.02.24-.04.35-.06.08-.01.16-.02.24-.03.55-.07,1.1-.11,1.67-.11.27,0,.53.01.79.03.1-.78.3-1.52.58-2.23.02-.05.03-.09.05-.14.03-.07.06-.14.09-.21.02-.05.05-.11.07-.16.03-.07.07-.14.1-.21.03-.05.05-.11.08-.16.04-.07.07-.14.11-.2.03-.05.06-.11.09-.16.07-.11.13-.23.2-.34.03-.05.07-.1.1-.16.04-.06.08-.12.12-.18.04-.05.07-.1.11-.15.04-.06.09-.12.13-.18.04-.05.08-.1.12-.16.04-.05.08-.11.13-.16.08-.09.16-.19.24-.28.04-.05.09-.1.14-.14.05-.05.1-.1.14-.15.05-.05.09-.1.14-.14.05-.05.1-.1.16-.15.05-.04.09-.09.14-.13.07-.06.14-.12.21-.18.06-.05.12-.1.18-.15.07-.06.14-.11.21-.17.05-.04.1-.07.14-.11.06-.05.13-.09.19-.14.05-.03.1-.07.15-.1.07-.05.15-.1.22-.14.04-.03.08-.05.13-.08.11-.07.23-.13.34-.2.04-.02.08-.04.12-.07.08-.04.16-.09.24-.13.05-.02.1-.05.15-.07.08-.04.16-.08.25-.11.05-.02.09-.04.14-.06.12-.05.24-.1.36-.14.02,0,.04-.02.07-.02.12-.04.24-.08.36-.12.05-.01.09-.03.14-.04.09-.03.19-.05.28-.08.05-.01.1-.03.15-.04.1-.03.21-.05.31-.07.04,0,.07-.02.11-.02.14-.03.28-.05.42-.07.04,0,.07,0,.11-.02.11-.02.22-.03.33-.04.05,0,.1-.01.14-.02.1,0,.21-.02.31-.02.05,0,.09,0,.14,0,.15,0,.29-.01.44-.01h0c.15,0,.3,0,.44.01.04,0,.09,0,.13,0,.11,0,.21.01.31.02.05,0,.09,0,.14.01.11.01.22.03.33.04.03,0,.07,0,.1.01.14.02.28.05.42.08.03,0,.06.01.1.02.11.02.21.05.32.07.05.01.09.02.14.04.1.03.19.05.29.08.04.01.08.02.13.04.13.04.26.08.38.13,0,0,.01,0,.02,0,.13.05.26.1.39.15.04.02.08.04.12.05.09.04.18.08.26.12.04.02.09.04.13.06.09.04.18.09.27.14.04.02.07.04.11.06.12.06.23.13.35.2.03.02.07.04.1.06.08.05.17.1.25.16.04.03.09.06.13.09.07.05.14.1.21.15.04.03.08.06.13.09.09.07.17.13.26.2.03.03.07.05.1.08.09.07.18.15.26.23.04.04.08.07.12.11.06.06.12.11.18.17.04.04.08.08.12.12.06.06.11.12.17.18.04.04.07.08.11.12.08.1.17.19.25.29.04.04.07.09.1.13.05.06.1.13.15.19.04.05.08.1.11.15.04.06.09.12.13.18.04.05.07.1.11.16.05.07.09.14.14.21.05.07.09.14.13.22.05.08.09.16.14.24.03.06.06.11.09.17.03.06.07.13.1.19.03.06.06.12.09.18.03.07.06.13.09.2.03.06.05.12.08.18.05.11.09.23.14.35h0c.24.64.41,1.32.5,2.02.26-.02.52-.03.79-.03.56,0,1.11.04,1.65.11.09.01.17.02.26.03.11.02.23.04.34.06.09.02.18.03.27.05.11.02.22.05.33.07.09.02.19.04.28.06.11.03.21.06.32.09.09.03.18.05.28.08.1.03.21.06.31.1.09.03.18.06.27.09.1.04.2.07.3.11.09.03.18.07.27.11.1.04.19.08.29.12.09.04.18.08.27.12.09.04.19.09.28.14.09.04.17.09.26.13.09.05.18.1.27.15.09.05.17.1.26.15.09.05.17.1.26.16.09.05.17.11.25.16.08.05.17.11.25.17.08.06.16.12.25.18.08.06.16.11.24.17.08.06.16.13.25.19.07.06.15.12.22.18.08.07.17.14.25.22.07.06.14.12.2.18.09.08.18.17.27.25.05.05.11.1.16.16.14.14.28.28.41.43.04.04.07.08.1.12.1.11.19.22.29.33.05.06.1.12.14.18.08.1.15.19.23.29.05.07.1.13.14.2.07.1.14.19.21.29.05.07.09.14.14.21.06.1.13.19.19.29.05.07.09.15.13.22.06.1.12.2.17.3.04.08.08.15.12.23.05.1.1.2.15.3.04.08.08.16.11.24.05.1.1.21.14.31.04.08.07.16.1.24.04.11.09.21.13.32.03.08.06.17.09.25.04.11.08.22.11.33.03.08.05.17.08.25.03.11.07.23.1.34.02.08.05.17.07.25.03.12.06.24.08.36.02.08.04.16.05.25.02.12.04.25.07.37.01.08.03.16.04.24.02.13.04.27.05.41,0,.07.02.14.03.22.01.16.02.31.03.47,0,.05,0,.11.01.16.01.21.02.43.02.64s0,.43-.02.64c0,.05,0,.11-.01.16Zm-22.96-7.01c.41,0,.75-.34.75-.75s-.34-.75-.75-.75-.75.34-.75.75.33.75.75.75Zm3.05-2.6h-1.82v4.14h-.62c-.17-.13-.39-.21-.63-.21s-.45.08-.63.21h-.59v-4.14h-1.81v12.63h-.74v1.85h7.58v-1.85h-.74v-12.63Zm-1.82,12.63h-2.47v-1.18h2.47v1.18Zm0-1.99h-2.47v-5.74h.7c.03-.27.25-.47.53-.47s.5.21.52.47h.72v5.74Zm1.8-13.28h-1.51v-1.2h-.42v-.76h.4v-.69h-.4v-.11c0-.56-.41-1.01-.94-1.09v-1.92h-.33v1.92c-.53.08-.94.54-.94,1.09v.11h-.4v.69h.4v.76h-.42v1.2h-1.51v1.12h-.74v.73h7.55v-.73h-.74v-1.12Zm-3.38,0h-.43v-1.2h.43v1.2Zm1.12,0h-.43v-1.2h.43v1.2Zm9.4-.28h-1.68c-.11-4.59-3.87-8.28-8.49-8.28s-8.37,3.69-8.49,8.28h-1.68c-6.48,0-11.74,5.25-11.74,11.74s5.26,11.74,11.74,11.74h1.68c.12,4.59,3.87,8.28,8.49,8.28s8.37-3.69,8.49-8.28h1.68c6.48,0,11.74-5.25,11.74-11.74s-5.26-11.74-11.74-11.74Zm-20.25,15.52c-.68-.59-1.52-1.01-2.45-1.17h4.72c-.93,0-1.76.46-2.27,1.17Zm.57.58c.36-.57.99-.95,1.71-.95,1.12,0,2.02.9,2.02,2.02h0v2.29h-2.55s0-.07,0-.11c0-1.24-.45-2.37-1.18-3.25Zm3.73,4.15v4.85h-1.09v-3.13h0c0-.66-.24-1.26-.64-1.72h1.72Zm5.79,10.74c-3.35,0-6.19-2.12-7.27-5.1h14.54c-1.08,2.97-3.92,5.1-7.27,5.1Zm-2.02-5.89v-4c.17-1.02,1.04-1.79,2.08-1.79.95,0,1.76.66,2.01,1.56v4.23h-4.09Zm8.89-3.13h0v3.13h-1.12v-4.85h1.75c-.4.46-.63,1.06-.63,1.72Zm1.46-2.62s0,.07,0,.11h-2.58v-2.29h0c0-1.12.9-2.02,2.02-2.02.73,0,1.37.39,1.72.97-.73.88-1.16,2-1.16,3.23Zm1.73-3.81c-.51-.71-1.34-1.18-2.28-1.18h4.75c-.94.16-1.78.58-2.47,1.18Zm9.06-7.86c-2.72,0-5.01,1.85-5.67,4.36h-10.13v.79h9.98c-.03.23-.04.47-.04.71,0,0,0,0,0,.01h-9.94v.79h4.45c-1.55,0-2.81,1.26-2.81,2.81h0v7.93h-1.1v-6.85h.68v-.53h-2.47v1.89c-.34-.39-.79-.68-1.3-.83v-.6h.29v-.47h-2.11v.47h.29v.63c-.49.16-.92.46-1.25.86v-1.94h-2.52v.52h.68v6.85h-1.14v-7.93h0c0-1.55-1.26-2.81-2.81-2.81h4.48v-.79h-9.93c0-.25-.02-.49-.04-.73h9.98v-.79h-10.13c-.67-2.51-2.95-4.36-5.67-4.36-.4,0-.8.04-1.18.12,1.58-4.06,5.52-6.93,10.13-6.93h2.44v-.65h0c0-4.27,3.46-7.73,7.74-7.73s7.74,3.46,7.74,7.73v.65h2.44c4.61,0,8.55,2.88,10.13,6.93-.38-.08-.78-.12-1.18-.12Zm-19.81,19.28h-1.39l-.33,1.01h1.12l-.05.4h-1.22l-.15.46h1.87l.14-1.87Zm-.54.66h-.63l.09-.34h.61s-.06.34-.06.34Zm4.56.71l.23.5.69-.03-.27-.43.32-.02-.27-.46h-.39l-.47-.93h-.48l-.49.88.18.5h.94Zm-.4-.88l.19.42h-.4l.21-.42Zm-5.77-.5h-.54l-.85,1.87h.75l.64-1.87Zm2.74,1.87h1.9l-.12-.48h-.75l.59-.53-.2-.86h-1.41v.72s.53,0,.53,0l-.05-.29h.51l.03.32-1.02.62-.02.5Z"/>
    </g>
  </g>
</svg>