<?xml version="1.0" encoding="UTF-8"?>
<svg id="Layer_2" data-name="Layer 2" xmlns="http://www.w3.org/2000/svg" viewBox="0 0 224.31 79.5">
  <defs>
    <style>
      .cls-1 {
        fill: #005826;
        fill-rule: evenodd;
      }
    </style>
  </defs>
  <g id="Layer_1-2" data-name="Layer 1">
    <g>
      <g>
        <path class="cls-1" d="m209.42,5.15v.03c.58.67.67,1.38,0,2.54v-2.57h0Zm0,9.58c1.12.29,2.83.35,3.09.48.45.25.87-.55.26-1.03-.22-.19-.83-.77-1.51-1.19-.64-.42-1.32-.8-1.83-1.19v-1.58c.58-.19,1.42-.26,2.38-.32,1.26-.09,2.86-1.32,3.96-.96,1.06.32,1.87.22,3.41,3.83.23.64-.45,1.64-1.06,2.6-.93,1.45-1.18,2.86-2.15,4.41-.67,1.09-2.6,4.31-1.58,4.08,3.64-.77,4.79-.61,6.82,1.19,1.29,1.16,2.58,1.9,2.67,3.25v.35c0,.26-.07.51-.16.8-2.09,3.57-6.82.87-10.9,2.54-.68.77-.45,2.12-2.09,2.63-.42.13-.87.32-1.29.55v-6.11c1.42-.13,2.64-.23,3.37-.29.77-.06,1.19-.93.58-1.29-.2-.13-1.8-.09-3.96.07v-9.26c.8.06,1.35.1,1.57-.22.26-.29.26-.9-.06-1.16-.42-.16-1-.26-1.51-.29v-1.9h0Zm0,24.5c1.06-.13,2.25-.32,3.34-.45,1.51-.19,2.45-1.03,3.06-.58,1.74,1.32,2.02,1.51,2.89,3.99.77,2.19-2.41,2.96-4.08,2.58-2.51-.61-3.18-.97-5.21-.77v-4.76Zm-1.54-35.73c.64.52,1.19,1.19,1.54,1.64v2.57c-.32.58-.8,1.25-1.54,2.06V3.51h0Zm0,8.71c.45.32.83.71.61,1.74-.1.35.35.61.93.77v1.9c-.52-.06-1.03-.06-1.29-.03-.1.03-.19.07-.25.1v-4.47h0Zm1.54-.42c-.36-.29-.61-.55-.68-.81-.06-.35.19-.61.68-.77v1.58h0Zm0,23.37c-.55.29-1.06.65-1.54,1v-6.98c.55-.07,1.06-.1,1.54-.13v6.11h0Zm-1.54,4.18c.48,0,1-.06,1.54-.13v4.76c-.36.06-.77.13-1.26.19-.1.03-.2.06-.29.16v-4.98h0Zm1.54-11.8c-.48.03-1,.07-1.54.09v-4.21c.19,0,.32-.03.41-.13.26-.26.74-.51.32-.93-.17-.19-.32-.26-.74-.22v-4.15c.16.2.7.36,1.25.29h.29v9.26Zm-6.37-19.36c.19-.1.38-.23.54-.38,1.22-1.25-.1-4.85,2.38-5.11.67-.03,1.35.32,1.9.8v6.27c-.13.16-.29.32-.42.51-.13.1-.29.2-.39.97.07.51.45.71.81.96v4.47c-.36.23-.16.81-.04,1.25,0,0,.04.03.04.06v4.15h-.13c-.68.13-.55.32-.74.96.03.16.51.32.87.32v4.21c-.61.07-1.29.1-1.93.16-.96.06-1.93.13-2.89.22v-3.06c.32.1.77.07.96-.13.55-.58.58-.74-.06-1-.03.06-.26-.39-.61,0-.13.16-.22.26-.29.32v-6.24c.32-.19.64-.48.67-.71.1-.77.13-1.09-.51-.93,0,.03-.06.06-.16.09v-8.2h0Zm4.82,27.98c-1.09.9-1.9,1.9-1.93,2.51-.03.61.77.74,1.93.67v4.98c-.84.87,0,5.15-.78,7.11-.61,1.48-1.45,3.28-2.25,4.5-.55.8-1.16,1.51-1.8,2.06v-28.1l.87-.16c1.29-.23,2.67-.42,3.96-.55v6.98Zm-10.2-29.29c.96-.26,2.03-.16,2.54.29.84.74,1.9,1.41,2.83,1.03v8.2c-.1.03-.26.1-.35.35-.32.64-.45.77-.26,1.42.09.06.35-.03.61-.23v6.24q-.13.16-.26.61c0,.1.13.16.26.19v3.06c-1.13.13-2.22.26-3.25.48-.42.1-1.29.16-1.99.61-.03,0-.1.03-.13.07v-4.82c.8-.45,1.61-1.16,1.7-1.67.22-2,.19-3.02-1.45-2.61,0,.07-.1.1-.26.13v-3.89c.8-.45,1.83-1.55,1.99-2.51.19-1.93-.45-3.28-1.99-2.96v-3.99h0Zm5.37,51.13c-1.51,1.29-3.05,1.7-3.92,1.03-.33-.26-.78-.8-1.45-1.55v-5.75c1.32-.1,2.41-.26,2.67-.74.9-1.54.83-3.06.64-4.89.03-.7-.96-.29-2.54-.48-.26-.03-.49-.03-.77-.03v-4.5c.55-.03,1.03-.09,1.29-.39.71-.8-.74-1.64-.61-2.38.16-1.25,3.31-1.61,3.64-2.44.32-.96.87-.45.99-1.58.1-1.06-2.34.06-3.34.35-.74.22-1.35.32-1.96.48v-4.21c1.51-.35,3.34-.71,5.37-1.03v28.1Zm-16.59-29.52c.71-.58.52-8.97.13-11.54-.48-1.29-.61-3.06-.42-3.99.26-1.32.97-1.64,1.8-1.22.93.48,1.96,1.9,3.06,4.15.74,1.54-.06,1.32-.06,1.9-.06,2.86-.32,5.76-.36,7.69,0,1.16,1.58,1.28,1.84.58.26-4.7-.32-10.96.1-13.73.06-1.77-.71-4.02.03-4.56.84-.64,2.76-.26,3.63.19.68.35.64-.81,1.16-.97.1-.06.23-.1.32-.1v3.99s-.07.03-.13.03c-.26.22-.19.55-.19.74-.19,1.77-.48,3.19-.45,4.82.12.13.45.07.77-.13v3.89c-.36.1-.93.29-1,1.22-.13,1.77-1.19,1.74-.64,3.38.22.19.93-.03,1.64-.45v4.82c-.48.38-.87,1.09-1.51,1.19-1.1.16-1.99.1-2.58.2-.8.1-1.22.29-2.15.42-.84.13-2.77.45-4.02,1.54-1.19,1.03-1.35,4.02-1.99,5.28-.55,1.06-1.13,2.12-1.57,3.02-.61,1.12-1.13,2.03-2.32,2.31-1.64.39-2.96-1.64-3.12-2.92v-.48c.48-1.86.9-3.38,1.06-5.08.09-1.16-.32-2.25-.19-3.18.13-.9.74-1.29,1.15-1.74.49-.58.97-1.25,1.83-1.09.71.13,1.13.67,1.84.74,1.06.13,1.61-.29,2.35-.9h0Zm11.22,29c-.51-.58-1.13-1.25-1.9-1.96-1.18-1.06-3.21-1.83-4.27-2.83-.68-1.12,3.31-.81,6.17-.96v5.75h0Zm0-11.9v-4.5c-.48.03-1.03.03-1.45.06-2.73.35-6.21,0-8.81.68-2.7.74-2.12,1.87-.83,3.05.64.61.83,1.06,2.57,1.93,1.71.84,5.79-1.12,8.52-1.22h0Zm0-10.45v-4.21c-1.35.32-2.48.64-3.25,1.03-.74.35-2.83,1.58-3.57,1.99-1.77,1.03-1.38,1.8-.61,2.47,1.83,1.54,4.44.77,4.92.26.93-.99,1.71-1.32,2.51-1.54Z"/>
        <path class="cls-1" d="m124.15,22.03c2.45.07,4.02-.19,3.99-.64.1-2.03.13-5.47-.48-8.1-.32-1.35.68-2.19,1.41-2.63,1.83-1.06,2.32-1.54,3.32-1.42,1.8.26,3.12,1.38,4.37,3.02.61.87,1.09-.35.38,4.02-.38,2.25-.03,2.41.29,2.74,1,.42,2.06.09,3.6-.39,1.9-.51,2.54-3.44,6.27,1,.52.51.9,1.25.22,2.18-.8,1.09-2.73,1.71-4.89,2.93-2.83,1.57-7.43,1.87-6.78,3.89,1.93,4.82,7.17,11.77,14.08,16.59,1.77,1.22,3.92,2.25,6.37,2.93,3.54.96,6.49,1.7,4.76,2.6-2.67,1.38-12.6,2.99-15.4,1.48-2.86-1.54-11.51-15.24-13.02-17.94-.06-.13-.32-.13-.45.23-1.61,3.54-5.02,10.16-8.49,12.89-1.51,1.22-3.76.58-4.47.07-.77-.61-5.82-1.71-6.62-3.28-.45-1,.23-1.06.78-1.16,6.66-.26,7.56-2.19,9.1-3.41,4.08-3.15,4.69-8.59,4.15-8.81-6.08.58-8.2,1.32-10.1-.9-3.76-7.56-.71-8.84,2.83-8.39,1.77.26,4.15.48,4.79.51Z"/>
        <path class="cls-1" d="m62.99,29.24c.74.23,1.35.64,1.99,1.87,1.8,2.89,1.06,6.53,1.58,8.81.45.29,1.64.03,2.96-.16,1.77-.29,3.7-.64,3.63-1.12-.25-2.44.13-18.33-.23-20.51-.06-.23-.19-.93-.25-1.16-.81-3.67,2.66-4.73,3.7-4.63,1.8.19,5.37,3.57,4.85,5.11-.96,1.61-1.06,6.14-1.09,10.48-.03,3.66-.1,7.27.1,8.62,0,1.12,4.6-.29,6.14-.9,1.93-.36,1.51-6.43,3.15-7.56.81-.55,5.37.22,6.08,4.05.09,2.09-.52,4.79-1.03,7.4-.35,1.83-.64,4.02-.71,4.85-.06.87-3.6,4.5-4.79,5.34-1.87.45-2.44-3.92-2.44-6.3,0-1.29.03-1.7-.32-2-1.09-.09-3.96.39-5.6,1.29-.9.48-1.22,1.77-2.41,1.99-4.76-.19-9.61.77-10.35,1.51-.42.42-2.67,2.35-3.06,2.89-.38.52-2.06-.03-2.57.16-1.22.39-1.93-1.77-3.31-3.57-1.45-1.83-.45-2.93.42-4.95.93-2.25,1.25-6.21,1.03-8.91,0-1.38-.07-2.96,2.54-2.61Z"/>
        <path class="cls-1" d="m27.46,10.85c.81.03,1.74.03,2.67-.03,1.67-.2,3.76-1.61,5.27-1.64,2.19,0,5.18,3.09,5.91,5.05.45,1.7-.61,3.05-1.8,3.7l-1.03.29c-1.16.61-3.25,3.35-3.15,3.89-.07.8-.07,1.35.77,1.96.52.74-.74,3.89-2.28,4.5-.45.26-.87.51-2.03.54-1.45-.06-2.89.29-4.34.9v-8.42c.68-.48,1.19-1.06,1.38-1.48.84-1.12,1.87-3.02,1.23-4.47-.61-.45-1.64-.51-2.61-.39v-4.41Zm-14.24,4.12c1.38-.77,2.35-1.26,3.89-1.8-.06-2.28-.35-4.7-.29-6.88.03-.45-.13-.87-.29-1.19C15.59,3.19,17.71.72,20.77.01c.84-.16,4.6,1.64,4.63,3.34-.06,2.44-.32,5.17-.13,7.33.58.06,1.32.13,2.19.16v4.41c-.9.13-1.74.42-2.25.64-.52.87-.84,6.17-.16,6.53.77.13,1.67-.29,2.41-.84v8.42c-1.06.45-2.12,1.03-3.12,1.67-.13,7.65-.74,14.82-1,22.41-.51,3.99-1.89,7.68-3.95,7.97-1.45-.16-2.86-3.35-2.93-8.42l-.32-20.84c-.84.13-1.8.45-2.93.9v-7.17c.87,0,1.35-.23,2.41-.84.68-.42.45-5.02.23-5.85-.32-.48-.94.23-1.13.35-.51.29-1,.51-1.51.64v-5.88Zm-5.11,2.44c.87.29,1.54-.35,2.64-.96.99-.61,1.8-1.06,2.47-1.48v5.88c-.9.26-1.77.26-2.54.03-.8-.35.07,5.28,1,5.53.67.06,1.16.13,1.54.13v7.17c-.77.29-1.64.68-2.6,1.06-.45.39-.87.77-1.29,1.26-.45.51-.74,1.32-1.29,1.44-1.26.32-2.64.13-3.73-.64-.87-.71-.9-2.48-2.15-4.37-.99-1.25-1.99-2.19-1.99-3.92.64-1.61.87-2.44,1.41-3.41.13-.48.22-.93.29-1.67.16-1.83.42-3.38,1.12-5.15.52-.96,3.09-2.6,5.11-.9Z"/>
      </g>
      <path class="cls-1" d="m224.31,68.5v.42c-.32.03-.55.1-.71.19-.13.1-.26.22-.39.42l-3.02,4.89v2.93c0,.61.13,1,.32,1.16.16.13.55.22,1.15.29v.38h-5.49v-.38c.61-.07,1-.16,1.16-.26.23-.2.32-.58.32-1.19v-2.31l-2.89-5.24c-.1-.19-.16-.29-.19-.35-.29-.35-.64-.51-1.06-.51v-.42h5.27v.42c-.55,0-.9.03-1.03.1-.16.06-.22.19-.22.42,0,.1.03.25.13.45.13.22.19.35.22.45l1.89,3.66,1.77-2.93c.13-.19.23-.42.36-.64.16-.38.26-.64.26-.83,0-.26-.13-.45-.35-.55-.23-.1-.55-.13-.97-.13v-.42h3.47Zm-45.24,7.27v-2.15c.32-.07.58-.16.74-.29.45-.35.71-1,.71-1.99,0-.8-.17-1.38-.49-1.74-.22-.26-.54-.45-.96-.52v-.58c1.28.03,2.28.29,2.99.74.77.48,1.13,1.16,1.13,2.06,0,.84-.29,1.48-.9,1.96-.32.26-.86.51-1.57.74l3.18,4.5c.1.13.19.19.29.22.13.03.23.07.36.07v.38h-3.21l-2.25-3.41h0Zm30.96,3.03v.38h-5.63v-.38c.61,0,1.03-.07,1.19-.23.23-.16.36-.58.36-1.22v-8.33c-.8,0-1.41.13-1.83.39-.68.42-1.09,1.16-1.22,2.28h-.45l.03-3.18h9.48l.03,3.18h-.48c-.13-1.09-.52-1.86-1.19-2.28-.45-.26-1.06-.39-1.83-.39v8.33c0,.64.13,1.06.32,1.22.19.16.61.23,1.22.23h0Zm-9.2,0v.38h-5.5v-.38c.65-.07,1.06-.16,1.22-.32.16-.16.23-.42.23-.8v-7.65c0-.45-.13-.78-.45-.94-.23-.13-.55-.16-1-.16v-.42h5.5v.42c-.45,0-.8.03-1,.16-.32.13-.48.45-.48.94v7.65c0,.45.13.77.42.93.23.13.58.19,1.06.19h0Zm-7.75-7.11h-.45c-.19-.71-.51-1.35-.93-1.86-.61-.71-1.32-1.06-2.15-1.06-.45,0-.83.13-1.19.38-.32.26-.52.61-.52,1.1,0,.45.13.77.32,1.03.22.23.67.51,1.32.84l2.31,1.16c.42.23.77.51,1.06.9.45.61.67,1.29.67,2.03,0,.83-.29,1.54-.87,2.15-.71.77-1.74,1.16-3.05,1.16-.48,0-.96-.07-1.38-.19-.42-.1-.87-.23-1.32-.35-.13,0-.22.03-.29.16-.06.1-.13.23-.16.39h-.48v-3.92h.48c.19.96.52,1.74.96,2.31.58.71,1.35,1.06,2.25,1.06.65,0,1.13-.16,1.48-.48.32-.32.52-.77.52-1.29,0-.45-.16-.84-.52-1.16-.19-.19-.64-.45-1.25-.77l-1.06-.48c-1.19-.58-1.96-1.19-2.35-1.9-.26-.42-.35-.93-.35-1.51,0-1,.35-1.77,1.06-2.35.61-.51,1.41-.74,2.41-.74.51,0,1.03.06,1.58.26.55.16.83.26.9.26.19,0,.32-.1.42-.26.03-.07.06-.16.1-.26h.48v3.4Zm-14.02-3.18v.58c-.16-.03-.32-.03-.48-.03-.42,0-.68.03-.77.13-.1.06-.16.26-.19.55v4.02c.58,0,1.06-.03,1.45-.13v2.15l-1.03-1.51h-.42v3.08c0,.58.1.96.29,1.12.16.13.51.26,1.09.32v.38h-5.34v-.38c.58-.07.96-.16,1.09-.29.19-.16.29-.55.29-1.16v-6.98c0-.64-.1-1.06-.36-1.23-.16-.16-.52-.22-1.03-.22v-.42h5.41Zm-115.57,10.67v-.38h.03v.38h-.03Zm0-7.49h.41c.13-1.12.55-1.86,1.22-2.28.42-.26,1.03-.39,1.8-.39v8.33c0,.64-.1,1.06-.32,1.22-.16.16-.58.23-1.19.23v.38h5.62v-.38c-.61,0-1.03-.07-1.22-.23-.22-.16-.32-.58-.32-1.22v-8.33c.77,0,1.38.13,1.83.39.64.42,1.06,1.19,1.19,2.28h.48l-.03-3.18h-9.49v3.18h0Zm99.32-2.76v-.42h9.1v3.18h-.38c-.2-1.06-.55-1.77-1.16-2.15-.48-.32-1.32-.48-2.48-.48-.45,0-.77.03-.93.13-.13.1-.23.29-.23.61v3.67c.84,0,1.41-.16,1.77-.45.42-.36.68-.96.8-1.9h.42v5.34h-.42c-.1-.96-.36-1.61-.74-1.93-.39-.35-1-.52-1.83-.52v3.83c0,.32.1.58.29.67.19.13.55.19,1.06.19.93,0,1.67-.16,2.28-.48.77-.45,1.38-1.19,1.86-2.31h.42l-.61,3.28h-9.23v-.38c.51-.07.87-.13,1-.23.25-.13.38-.45.38-.9v-7.65c0-.45-.13-.78-.42-.94-.19-.13-.51-.16-.96-.16h0Zm-1.38-.42v.42c-.42.03-.71.16-.9.32-.16.16-.32.48-.51.96l-3.6,9.26h-.45l-4.02-9.45c-.2-.45-.39-.74-.51-.84-.16-.13-.42-.19-.84-.26v-.42h5.3v.42c-.54,0-.9.03-1.06.1-.19.06-.29.26-.29.55,0,.13.06.35.19.67.13.35.22.58.29.71l2.06,4.98,2.03-5.21c.09-.23.16-.42.22-.61.06-.19.06-.35.06-.48,0-.49-.45-.71-1.35-.71v-.42h3.38Zm-11.83,10.29v.38h-5.53v-.38c.64-.07,1.06-.16,1.22-.32.16-.16.22-.42.22-.8v-7.65c0-.45-.13-.78-.45-.94-.2-.13-.55-.16-1-.16v-.42h5.53v.42c-.48,0-.84.03-1.03.16-.32.13-.48.45-.48.94v7.65c0,.45.12.77.42.93.23.13.58.19,1.09.19h0Zm-17.62.38v-.38c.52-.07.87-.16,1.03-.26.22-.2.35-.52.35-1v-7.49c-.42-.52-.71-.84-.93-.97-.13-.13-.29-.16-.41-.16v-.42h3.34l5.47,6.75.03-4.79c0-.52-.1-.9-.26-1.13-.19-.29-.61-.42-1.22-.42v-.42h3.41v.42c-.55.06-.87.16-1.03.35-.13.16-.19.48-.19.9v9.29h-.45l-7.04-8.55-.03,6.31c0,.58.1.96.32,1.19.19.19.58.32,1.19.39v.38h-3.57Zm-1.22-10.67v.42c-.48.06-.8.16-.94.29-.19.19-.32.55-.32,1.03v5.05c0,.55-.06,1.09-.16,1.61-.16.64-.42,1.13-.7,1.45-.36.39-.87.71-1.48.9-.51.16-1.06.26-1.64.26-.52,0-1-.07-1.45-.16-.71-.16-1.28-.45-1.74-.84-.42-.36-.68-.71-.8-1.03-.2-.42-.29-1.03-.29-1.83v-5.27c0-.61-.13-1-.32-1.19-.13-.13-.48-.22-1-.26v-.42h5.34v.42c-.58,0-.96.06-1.13.19-.26.19-.39.61-.39,1.25v5.27c0,1.09.2,1.86.55,2.35.38.48.96.74,1.7.74,1.22,0,2.02-.45,2.48-1.35.23-.48.35-1.19.35-2.09v-4.82c0-.55-.09-.93-.26-1.13-.23-.29-.64-.42-1.29-.42v-.42h3.47Zm-27.43,10.67v-.38c.54-.07.87-.16,1.03-.26.22-.2.35-.52.35-1v-7.49c-.42-.52-.71-.84-.9-.97-.16-.13-.29-.16-.45-.16v-.42h3.34l5.46,6.75.03-4.79c0-.52-.07-.9-.26-1.13-.19-.29-.61-.42-1.19-.42v-.42h3.38v.42c-.55.06-.87.16-1,.35-.16.16-.22.48-.22.9v9.29h-.45l-7.01-8.55-.03,6.31c0,.58.09.96.29,1.19.19.19.61.32,1.19.39v.38h-3.57Zm-11.32-10.26v-.42h9.1v3.18h-.39c-.16-1.06-.55-1.77-1.16-2.15-.48-.32-1.32-.48-2.47-.48-.45,0-.77.03-.9.13-.16.1-.22.29-.22.61v3.67c.8,0,1.38-.16,1.73-.45.42-.36.67-.96.8-1.9h.42v5.34h-.42c-.1-.96-.32-1.61-.74-1.93-.38-.35-1-.52-1.8-.52v3.83c0,.32.06.58.26.67.19.13.55.19,1.06.19.93,0,1.7-.16,2.28-.48.77-.45,1.42-1.19,1.87-2.31h.45l-.64,3.28h-9.23v-.38c.51-.07.87-.13,1.03-.23.22-.13.35-.45.35-.9v-7.65c0-.45-.13-.78-.42-.94-.19-.13-.51-.16-.96-.16h0Zm-2.19,2.76h-.45c-.2-.71-.48-1.35-.93-1.86-.61-.71-1.32-1.06-2.15-1.06-.45,0-.84.13-1.19.38-.32.26-.51.61-.51,1.1,0,.45.13.77.35,1.03.19.23.64.51,1.29.84l2.31,1.16c.42.23.77.51,1.06.9.45.61.68,1.29.68,2.03,0,.83-.29,1.54-.87,2.15-.71.77-1.74,1.16-3.06,1.16-.48,0-.96-.07-1.38-.19-.42-.1-.87-.23-1.32-.35-.13,0-.22.03-.29.16-.07.1-.13.23-.16.39h-.45v-3.92h.45c.19.96.52,1.74.96,2.31.58.71,1.35,1.06,2.25,1.06.64,0,1.13-.16,1.48-.48.32-.32.52-.77.52-1.29,0-.45-.16-.84-.48-1.16-.22-.19-.67-.45-1.29-.77l-1.06-.48c-1.16-.58-1.96-1.19-2.35-1.9-.23-.42-.35-.93-.35-1.51,0-1,.35-1.77,1.06-2.35.61-.51,1.41-.74,2.41-.74.51,0,1.03.06,1.58.26.54.16.83.26.9.26.19,0,.32-.1.42-.26.03-.07.07-.16.09-.26h.49v3.4h0Zm-9.17,2.96v1.83h-5.43v-1.83h5.43Zm-17.17-6.14v3.18h-.07l.07-3.18h0Zm0,10.29c-.36,0-.61-.16-.84-.48-.19-.22-.45-.8-.83-1.7l-3.54-8.33h-.42l-.68,1.67v1.8l1.55,3.7h-1.55v.64h1.77c.22.51.38.87.45,1.06.2.48.29.84.29,1.03,0,.26-.09.42-.26.48-.19.1-.51.13-1.03.13v.38h5.08v-.38Zm-6.3-8.84v1.8l-.06-.13-1.48,3.83h1.54v.64h-1.77c-.26.58-.42,1.06-.54,1.38-.1.32-.16.55-.16.64,0,.25.16.45.45.58.19.06.48.1.83.1v.38h-2.99v-.45c.32-.06.55-.22.71-.45.16-.19.35-.65.65-1.32l2.83-7.01h0Zm-4.18-1v-.45h.23v.42c-.07,0-.13,0-.23.03Zm0-.45v.45c-.19.03-.35.1-.45.16-.16.1-.29.22-.39.42l-3.02,4.89v2.93c0,.61.1,1,.29,1.16.16.13.55.22,1.16.29v.38h-5.46v-.38c.61-.07,1-.16,1.12-.26.23-.2.35-.58.35-1.19v-2.31l-2.89-5.24c-.1-.19-.16-.29-.22-.35-.29-.35-.65-.51-1.06-.51v-.42h5.3v.42c-.54,0-.9.03-1.06.1-.16.06-.22.19-.22.42,0,.1.06.25.16.45.09.22.2.35.22.45l1.9,3.66,1.74-2.93c.13-.19.26-.42.35-.64.19-.38.26-.64.26-.83,0-.26-.1-.45-.32-.55-.26-.1-.58-.13-1-.13v-.42h3.25Zm0,10.23c-.06.03-.13.07-.19.07v.38h.19v-.45h0Zm-31.57.45v-.38c.54-.07.87-.16,1.03-.26.23-.2.35-.52.35-1v-7.49c-.42-.52-.7-.84-.9-.97-.16-.13-.29-.16-.45-.16v-.42h3.34l5.47,6.75.03-4.79c0-.52-.06-.9-.25-1.13-.19-.29-.61-.42-1.19-.42v-.42h3.37v.42c-.51.06-.87.16-1,.35-.16.16-.22.48-.22.9v9.29h-.45l-7.01-8.55-.03,6.31c0,.58.09.96.29,1.19.19.19.61.32,1.19.39v.38h-3.57Zm-1.39-10.67v.42c-.48.06-.77.16-.93.29-.19.19-.29.55-.29,1.03v5.05c0,.55-.07,1.09-.2,1.61-.16.64-.38,1.13-.71,1.45-.36.39-.87.71-1.48.9-.51.16-1.06.26-1.61.26-.51,0-1.03-.07-1.48-.16-.71-.16-1.29-.45-1.74-.84-.39-.36-.67-.71-.8-1.03-.19-.42-.29-1.03-.29-1.83v-5.27c0-.61-.1-1-.32-1.19-.12-.13-.45-.22-.96-.26v-.42h5.34v.42c-.61,0-1,.06-1.16.19-.25.19-.38.61-.38,1.25v5.27c0,1.09.19,1.86.58,2.35.36.48.93.74,1.71.74,1.19,0,1.99-.45,2.44-1.35.22-.48.35-1.19.35-2.09v-4.82c0-.55-.07-.93-.26-1.13-.23-.29-.64-.42-1.29-.42v-.42h3.47Zm-12.99,3.18h-.45c-.19-.71-.48-1.35-.93-1.86-.61-.71-1.32-1.06-2.15-1.06-.45,0-.84.13-1.19.38-.32.26-.51.61-.51,1.1,0,.45.13.77.35,1.03.19.23.64.51,1.29.84l2.32,1.16c.41.23.77.51,1.06.9.45.61.67,1.29.67,2.03,0,.83-.29,1.54-.87,2.15-.71.77-1.74,1.16-3.06,1.16-.48,0-.96-.07-1.38-.19-.42-.1-.87-.23-1.32-.35-.13,0-.22.03-.29.16-.07.1-.13.23-.16.39h-.45v-3.92h.45c.19.96.52,1.74.96,2.31.58.71,1.35,1.06,2.25,1.06.64,0,1.12-.16,1.48-.48.32-.32.52-.77.52-1.29,0-.45-.16-.84-.48-1.16-.23-.19-.68-.45-1.29-.77l-1.06-.48c-1.16-.58-1.96-1.19-2.35-1.9-.23-.42-.35-.93-.35-1.51,0-1,.35-1.77,1.06-2.35.61-.51,1.42-.74,2.41-.74.51,0,1.03.06,1.58.26.54.16.84.26.9.26.19,0,.32-.1.42-.26.03-.07.07-.16.1-.26h.48v3.4Z"/>
    </g>
  </g>
</svg>